# xmcd
#
# Track frame offsets:
# 150
# 21475
# 42861
# 71895
# 93642
# 115426
# 140321
# 159757
# 183475
# 202900
# 224520
#
# Disc length: 3352 seconds
#
#
# Revision: 0
# Processed by: cddbd v1.4PL0 Copyright (c) Steve Scherf et al.
# Submitted via: FreeRIP 2.00 
#
DISCID=a10d160b
DTITLE=Boz Scaggs - Dig
DYEAR=2001
DGENRE=Blues
TTITLE0=Payday
TTITLE1=Sarah
TTITLE2=Miss Riddle
TTITLE3=I Just Go
TTITLE4=Get On The Natch
TTITLE5=Desire
TTITLE6=Call That Love
TTITLE7=King Of El Paso
TTITLE8=You're Not
TTITLE9=Vanishing Point
TTITLE10=Thanks To You
EXTD=
EXTT0=
EXTT1=
EXTT2=
EXTT3=
EXTT4=
EXTT5=
EXTT6=
EXTT7=
EXTT8=
EXTT9=
EXTT10=
PLAYORDER=
